<mxfile host="app.diagrams.net" agent="Mozilla/5.0 (X11; Linux x86_64) AppleWebKit/537.36 (KHTML, like Gecko) Chrome/131.0.0.0 Safari/537.36" version="24.9.0">
  <diagram name="Page-1" id="E2fXl7Ch1rNL0eTTNMpg">
    <mxGraphModel dx="1382" dy="786" grid="1" gridSize="10" guides="1" tooltips="1" connect="1" arrows="1" fold="1" page="1" pageScale="1" pageWidth="850" pageHeight="1100" math="0" shadow="0">
      <root>
        <mxCell id="0" />
        <mxCell id="1" parent="0" />
        <mxCell id="IeOUgPAoGRNijfKwELKn-1" value="" style="shape=datastore;whiteSpace=wrap;html=1;" vertex="1" parent="1">
          <mxGeometry x="20" y="150" width="80" height="60" as="geometry" />
        </mxCell>
        <mxCell id="IeOUgPAoGRNijfKwELKn-2" value="Scribe-Data" style="shape=process;whiteSpace=wrap;html=1;backgroundOutline=1;" vertex="1" parent="1">
          <mxGeometry x="580" y="163.13" width="120" height="40" as="geometry" />
        </mxCell>
        <mxCell id="IeOUgPAoGRNijfKwELKn-3" value="Lexeme Dump" style="text;html=1;align=center;verticalAlign=middle;resizable=0;points=[];autosize=1;strokeColor=none;fillColor=none;" vertex="1" parent="1">
          <mxGeometry x="10" y="175" width="100" height="30" as="geometry" />
        </mxCell>
        <mxCell id="IeOUgPAoGRNijfKwELKn-4" value="" style="endArrow=classic;html=1;rounded=0;" edge="1" parent="1">
          <mxGeometry width="50" height="50" relative="1" as="geometry">
            <mxPoint x="100" y="180" as="sourcePoint" />
            <mxPoint x="160" y="180" as="targetPoint" />
          </mxGeometry>
        </mxCell>
        <mxCell id="IeOUgPAoGRNijfKwELKn-5" value="&lt;b&gt;&lt;sub&gt;Job Downloader&lt;/sub&gt;&lt;/b&gt;&lt;div&gt;&lt;sub&gt;&lt;span style=&quot;text-align: center; text-wrap-mode: nowrap;&quot;&gt;- Latest dump&lt;/span&gt;&lt;br&gt;&lt;/sub&gt;&lt;div&gt;&lt;span style=&quot;text-wrap-mode: nowrap;&quot;&gt;&lt;sub&gt;- Specific dump&lt;/sub&gt;&lt;/span&gt;&lt;div style=&quot;text-wrap-mode: nowrap;&quot;&gt;&lt;sub&gt;&amp;nbsp;(Checks if the dump valid)&lt;/sub&gt;&lt;/div&gt;&lt;/div&gt;&lt;/div&gt;" style="rounded=1;whiteSpace=wrap;html=1;rotation=0;align=left;" vertex="1" parent="1">
          <mxGeometry x="160" y="142.5" width="150" height="75" as="geometry" />
        </mxCell>
        <mxCell id="IeOUgPAoGRNijfKwELKn-23" style="edgeStyle=orthogonalEdgeStyle;rounded=0;orthogonalLoop=1;jettySize=auto;html=1;" edge="1" parent="1" source="IeOUgPAoGRNijfKwELKn-15" target="IeOUgPAoGRNijfKwELKn-2">
          <mxGeometry relative="1" as="geometry" />
        </mxCell>
        <mxCell id="IeOUgPAoGRNijfKwELKn-15" value="&lt;div style=&quot;text-align: justify;&quot;&gt;&lt;span style=&quot;background-color: initial;&quot;&gt;&lt;b&gt;&lt;sup&gt;Parsing dump&lt;/sup&gt;&lt;/b&gt;&lt;/span&gt;&lt;/div&gt;&lt;div style=&quot;text-align: justify;&quot;&gt;&lt;sup&gt;- Translation&lt;/sup&gt;&lt;/div&gt;&lt;div style=&quot;text-align: justify;&quot;&gt;&lt;sup&gt;- Data-types&lt;/sup&gt;&lt;/div&gt;&lt;div style=&quot;text-align: justify;&quot;&gt;&lt;sup&gt;- Forms&lt;/sup&gt;&lt;/div&gt;" style="rounded=1;whiteSpace=wrap;html=1;" vertex="1" parent="1">
          <mxGeometry x="380" y="146.25" width="140" height="73.75" as="geometry" />
        </mxCell>
        <mxCell id="IeOUgPAoGRNijfKwELKn-18" style="edgeStyle=orthogonalEdgeStyle;rounded=0;orthogonalLoop=1;jettySize=auto;html=1;" edge="1" parent="1">
          <mxGeometry relative="1" as="geometry">
            <mxPoint x="380" y="180" as="targetPoint" />
            <mxPoint x="310" y="180" as="sourcePoint" />
          </mxGeometry>
        </mxCell>
      </root>
    </mxGraphModel>
  </diagram>
</mxfile>
